<?xml version="1.0" encoding="UTF-8"?><svg id="Livello_2" xmlns="http://www.w3.org/2000/svg" width="1280" height="962" viewBox="0 0 1280 962"><defs><style>.cls-1{fill:#4285f4;}.cls-1,.cls-2,.cls-3,.cls-4,.cls-5{stroke-width:0px;}.cls-2{fill:#ea4335;}.cls-3{fill:#c5221f;}.cls-4{fill:#34a853;}.cls-5{fill:#fbbc04;}</style></defs><g id="Livello_3"><path class="cls-1" d="m292,464.3v495.5H85c-46.9,0-85-38.1-85-85V244.7l292,219.6Z"/><path class="cls-3" d="m292,87v377.2L0,244.7v-116.4c0-23.7,6.4-45.9,17.7-65l7.6-10.1C69.5-5.6,153-17.5,211.9,26.8l80.1,60.2Z"/><polygon class="cls-2" points="988 89.3 988 466.5 946 498.1 646.4 723.4 641.5 727.1 625.8 715.3 334 495.8 292 464.3 292 87 641.5 349.8 988 89.3"/><path class="cls-4" d="m988,466.5v495.5s207,0,207,0c46.9,0,85-38.1,85-85V246.9s-292,219.6-292,219.6Z"/><path class="cls-5" d="m1280,130.6v116.4l-292,219.6V89.3l80.1-60.2c58.8-44.2,142.4-32.4,186.7,26.4l7.6,10.1c11.2,19.1,17.7,41.3,17.7,65Z"/></g></svg>