<?xml version="1.0" encoding="UTF-8"?><svg id="Livello_2" xmlns="http://www.w3.org/2000/svg" width="624" height="586.7" viewBox="0 0 624 586.7"><defs><style>.cls-1{fill:#702c82;}.cls-1,.cls-2,.cls-3{stroke-width:0px;}.cls-2{fill:#fbe9c0;}.cls-3{fill:#f8b537;}</style></defs><g id="Livello_1-2"><rect class="cls-1" width="624" height="586.7"/><path class="cls-2" d="m234.6,217.2l-25.2-106.7c-.2-1-1.1-1.6-2.1-1.6h-24.5c-1,0-1.8.7-2,1.6l-27.2,106.6c-.3,1.3.7,2.7,2,2.7h20.3c1,0,1.8-.7,2.1-1.7l3.1-13.3c.2-1,1.1-1.7,2.1-1.7h22.5c.9,0,1.8.6,2,1.5l4,13.6c.3.9,1.1,1.5,2,1.5h18.9c1.4,0,2.4-1.3,2-2.6Zm-33.7-35.8h-14.1c-.4,0-.8-.4-.7-.8l6.8-35.5c.2-.7,1.2-.8,1.4,0l7.2,35.5c0,.4-.2.8-.7.8Z"/><path class="cls-2" d="m472.9,217.2l-25.2-106.7c-.2-1-1.1-1.6-2.1-1.6h-24.5c-1,0-1.8.7-2.1,1.6l-27.2,106.6c-.3,1.3.7,2.7,2.1,2.7h20.3c1,0,1.8-.7,2.1-1.7l3.1-13.3c.2-1,1.1-1.7,2.1-1.7h22.5c.9,0,1.8.6,2,1.5l4,13.6c.3.9,1.1,1.5,2,1.5h18.9c1.4,0,2.4-1.3,2.1-2.6Zm-33.7-35.8h-14.1c-.4,0-.8-.4-.7-.8l6.8-35.5c.1-.7,1.2-.8,1.4,0l7.2,35.5c0,.4-.2.8-.7.8Z"/><path class="cls-2" d="m247.7,108.9h21c1.4,0,2.6,1.1,2.6,2.6v82.7c0,1.4,1.2,2.6,2.6,2.6h27.1c1.4,0,2.6,1.1,2.6,2.6v18c0,1.4-1.2,2.6-2.6,2.6h-53.3c-1.4,0-2.6-1.1-2.6-2.6v-105.8c0-1.4,1.2-2.6,2.6-2.6Z"/><path class="cls-2" d="m385.4,177.8c-1.7-6-6.2-10.2-9.9-12.7-1.7-1.1-2-3.6-.5-5,4-4.1,10.1-12.3,9.3-23.4-1-13.3-11.8-25-26.6-27.7-.2,0-.4,0-.6,0h-38.4c-1.8,0-3.3,1.5-3.3,3.3v104.2c0,1.8,1.5,3.3,3.3,3.3h34.5c0,0,.2,0,.3,0,4.4-.3,12.5-1.6,20.3-7.3,3.2-2.4,8.8-6.4,11.1-13.6,1.2-3.7,1.3-7.3,1.3-10.7,0-2.8.1-6.8-.9-10.4Zm-46.7-46.7c4,0,8.1-.1,12.1-.2,4.6,1.6,7.9,5.5,8.3,9.9.5,5.2-2.9,10.2-8.3,12.1h-12.1v-21.8Zm13,66.2h-13v-22.7c4.3,0,8.7-.2,13-.2,5,1.6,8.5,5.7,8.9,10.3.5,5.4-3.1,10.6-8.9,12.5Z"/><path class="cls-2" d="m162.5,270.3h18.7c1,0,1.9-.8,2-1.8.4-4.1.3-13.5-6.4-21.9-9.1-11.4-22.9-11.5-25-11.4s-.2,0-.3,0c-2.3-.3-15.7-1.5-25.5,8.4-5.6,5.7-7.3,12.3-7.9,15.3s0,.2,0,.3c-.4,17.4-.7,34.7-1.1,52.1,0,.1,0,.3,0,.4.7,3.3,2.4,9.8,7.7,16,3.8,4.5,8,7,10.8,8.4,0,0,.1,0,.2,0,3.1,1.2,8.2,2.6,14.6,2.6,6.3,0,11.4-1.5,14.4-2.7,2.6-1.1,7.2-3.5,11.3-8.2,4.5-5.2,6.2-10.5,6.8-13.3s0-.3,0-.4v-29.6c0-1.1-.9-2-2-2l-29.1.4c-1.1,0-1.9.9-1.9,2v14.7c0,1.1.9,2,2,2h8c1.1-.2,2,.7,2,1.8s-.1,3.1-.6,4.9c-.7,2.9-1.7,7-5.2,8.9-3.9,2.1-8.4.2-9.4-.2s-.1,0-.2,0c-1.7-1-4.1-2.7-5.6-5.7-1.5-2.8-1.4-5.5-1.4-7.6,0-5.5-.5-11-.2-16.4.2-4.3.4-10.5.2-18.2,0-7.9,6-13.3,11.3-13,4.5.3,8.3,4.7,9.3,9,.3,1.2.3,2.3.3,3.2s.8,2,2,2Z"/><path class="cls-2" d="m263.8,288.2c-.2-22.1-.3-37.5-11.5-46.3-8.5-6.7-19.5-6.4-23.4-6.4-3.7,0-15.5.3-24.1,8.1-8.8,7.9-9,20-9.5,44-.4,19.3-.5,29.2,5.3,37.1,6,8.1,16.5,14.4,28.5,14.4,1,0,16.7-.1,27.1-12.2,7.8-9.1,7.8-19.4,7.6-38.8Zm-26.3,22.7c-3.4,7.1-8.6,7.2-8.9,7.2-4,0-7.4-3.7-9.4-8.5-1.9-4.7-1.9-10.5-1.8-21.8.2-14.2.2-21.2,3.1-25.9,2.8-4.6,6.7-4.7,7.9-4.8,1.3,0,4.9-.2,7.7,3.8,3.7,5.2,3.7,14.2,3.8,27.3,0,11.4,0,17.4-2.5,22.8Z"/><path class="cls-2" d="m315.3,265.8h17.1c1.6,0,3-1.3,3-3,0-4-.7-10.7-5.3-16.8-8-10.6-21.2-10.8-25.1-10.5-.7,0-1.4,0-2.1,0-3.4,0-12.5.8-20.3,8-3.6,3.4-5.9,7.1-7.3,10.5-2.7,6.5-2.7,13.8,0,20.3s.6,1.4,1,2.1c2,3.9,5,7.8,18.3,17,3.8,2.6,8.6,5.9,14.5,9.5,4,2.5,5.7,7.6,3.5,11.8s-1.3,2-2.3,2.7c-4.3,3.3-10.4,1-13.5-2.2-2.2-2.2-3-5-3.2-6.9s-1.1-2-2.3-2h-16.5c-1.8,0-3.2,1.5-3.1,3.3.2,4.1,1.5,10.8,6.4,17.1,6.1,7.8,14.2,10.1,16.7,10.7,2.1.6,14.8,4.3,26.9-3.1,4.8-2.9,8.6-7.1,11.3-12,6-11.1,4.2-24.7-4.6-33.8-.4-.4-.8-.8-1.2-1.1-5-4.7-9.1-6-20.7-13.3-2.4-1.5-4.6-2.9-6.3-4.2-4.1-2.8-5-8.6-1.7-12.2.6-.7,1.3-1.2,2.1-1.6,4-2.1,8.2.4,8.7.7,3.5,2.1,4.5,5.8,4.8,7.7s.7,1.2,1.4,1.2Z"/><path class="cls-2" d="m402,322.5c-1.9,3.5-4.5,6.7-7.5,9.3-3.2-1.6-6.7-2.4-10.3-2.4-7.2,0-13.7,3.3-18.7,8.7-.8-.2-1.3-.3-1.6-.4-2.5-.6-10.5-2.9-16.7-10.7-5-6.3-6.2-13-6.4-17.2-.1-1.8,1.3-3.3,3.1-3.3h16.5c1.2,0,2.1.9,2.3,2,.2,1.9,1,4.6,3.2,6.8,3.1,3.2,9.2,5.5,13.5,2.2.9-.7,1.7-1.7,2.3-2.7,2.2-4.2.5-9.3-3.5-11.8-5.9-3.6-10.7-6.8-14.5-9.5-13.3-9.3-16.4-13.1-18.3-17-.4-.7-.7-1.4-1-2.1-2.7-6.5-2.6-13.9,0-20.3,1.4-3.4,3.6-7.2,7.3-10.5,7.8-7.2,16.9-8,20.3-8,.7,0,1.4,0,2.1,0,3.9-.2,17.1,0,25.1,10.5,4.6,6.2,5.4,12.9,5.3,16.8,0,1.6-1.3,3-3,3h-17.1c-.7,0-1.3-.5-1.4-1.2-.3-1.9-1.2-5.6-4.8-7.7-.4-.3-4.7-2.7-8.7-.7-.8.4-1.5,1-2.1,1.6-3.3,3.7-2.4,9.5,1.7,12.2,1.8,1.2,3.9,2.6,6.3,4.2,11.6,7.3,15.7,8.6,20.7,13.3.4.3.8.7,1.1,1.1,8.8,9.1,10.6,22.7,4.6,33.8Z"/><path class="cls-2" d="m415.6,239.2v96c0,1.4,1.2,2.4,2.7,2.4h18.9c1.5,0,2.7-1.1,2.7-2.4v-96c0-1.4-1.2-2.4-2.7-2.4h-18.9c-1.5,0-2.7,1.1-2.7,2.4Z"/><path class="cls-2" d="m505.5,243.8c-.3-.3-.6-.6-1-.8-7.3-5.9-15.2-6.2-17.6-6.2h-32.5c-1.5,0-2.8,1.2-2.8,2.8v94.2c0,1.4,1.2,2.5,2.6,2.5h16.9c1.7,0,3-1.3,3-3v-25.8c0-1.9,1.7-3.3,3.6-2.9,4.5,1,12.5,1.7,20.9-2.5.4-.2.8-.4,1.2-.6,9-5,14.4-14.8,14.4-25.1v-12.9c0-7.4-3-14.7-8.6-19.6Zm-13.9,36.5c-.1.2-.3.5-.4.7-1.7,2.6-4.7,4-7.7,4h-9.3c-.7,0-1.2-.6-1.2-1.2v-25.3c0-.8.6-1.5,1.4-1.5,2.9-.1,5.4,0,7.2,0,3.7.2,4.7.5,5.6.9,1.5.7,2.6,1.8,3.4,3,1,1.5,1.6,3.3,1.7,5.1.2,2.3.2,4.3.3,5.9,0,6.1-.5,7.6-1,8.4Z"/><path class="cls-3" d="m232.8,382.3c.4,0,.6.3.4.7-2.1,4.1-5.3,11.9-5.2,22.2.2,11.3,4.3,19.7,6.8,23.8s0,1-.5,1c-2.5.2-6.9,0-11.3-2.4-5.9-3.3-8.1-8.7-9.3-11.6-1.6-4-2.1-7.9-2.1-11.2,0-7.1,3.3-14,9.2-18s0,0,.1,0c4.7-3.2,9.3-4,11.9-4.2Z"/><path class="cls-3" d="m245,382.2c-2.2,0-4.3,1.2-5.5,3.1-2.8,4.5-6.9,13.2-5.5,24.3,1,7.5,4.2,13.2,6.9,16.8s4.4,3.6,7.2,3.5c11.1-.4,22.2-.8,33.3-1.3s2.5,0,3.7.4l74.2,19.7c-4.6-10.7-10.9-29.1-10.9-52.4,0-17.4,3.5-31.6,6.7-41.3-24.3,8.4-48.5,16.9-72.8,25.3-1.4.5-2.8.7-4.3.8l-33.1,1.2Z"/><path class="cls-3" d="m250.9,433.4h26.7c-1,1.3-2.8,4-3.5,7.9-.4,2-.3,3.8-.2,5.3s.7,3.3,1.3,4.8c1.9,4.6,4.3,9.6,7,14.7,2.3,4.3,4.6,8.2,6.9,11.7s1.1,3.7,0,5.3,0,0,0,0c-2.7,4-9,5.5-16.5,4.5s-5.1-2-6.4-4.5-1.5-2.9-2.3-4.7c-3.6-8-4.9-13.9-6.9-22-1.4-5.5-3.4-13.4-6.2-23.1Z"/><path class="cls-3" d="m385.4,405.4c-.5,3.1-1.4,7.9-5.6,10.7-3.9,2.6-8.4,1.9-9.8,1.6-.8-5.3-1.4-11.3-1.6-18,0-5,0-9.7.4-14,1-.2,5.2-1,9.6,1.5,4.1,2.4,5.6,6.1,6,7.2.8,2.4,1.7,6.3.9,11.1Z"/><path class="cls-3" d="m384.4,394.3c.8,2.4,1.7,6.3.9,11.1-.5,3.1-1.4,7.9-5.6,10.7-3.9,2.6-8.4,1.9-9.8,1.6-.8-5.3-1.4-11.3-1.6-18,0-5,0-9.7.4-14,1-.2,5.2-1,9.6,1.5,4.1,2.4,5.6,6.1,6,7.2Z"/><path class="cls-3" d="m420.7,398.9c-1.4-35.3-17.6-63.4-36.3-62.6-18.6.7-32.6,30-31.2,65.3,1.4,35.3,17.6,63.3,36.3,62.6,18.6-.7,32.6-30,31.2-65.3Zm-31.8,56.7c-13,.5-24.5-23.7-25.7-54-1.2-30.3,8.4-55.3,21.3-55.8,13-.5,24.5,23.7,25.7,54,1.2,30.3-8.4,55.3-21.3,55.8Z"/><path class="cls-3" d="m385.4,405.4c-.5,3.1-1.4,7.9-5.6,10.7-3.9,2.6-8.4,1.9-9.8,1.6-.8-5.3-1.4-11.3-1.6-18,0-5,0-9.7.4-14,1-.2,5.2-1,9.6,1.5,4.1,2.4,5.6,6.1,6,7.2.8,2.4,1.7,6.3.9,11.1Z"/></g></svg>