<?xml version="1.0" encoding="UTF-8"?><svg id="Livello_2" xmlns="http://www.w3.org/2000/svg" width="497.6" height="884.7" viewBox="0 0 497.6 884.7"><defs><style>.cls-1{fill:#fff;}.cls-2{letter-spacing:0em;}.cls-3{fill:#702c82;}.cls-3,.cls-4,.cls-5,.cls-6{stroke-width:0px;}.cls-4{fill:#fbe9c0;}.cls-7{letter-spacing:0em;}.cls-5{opacity:.7;}.cls-5,.cls-6{fill:#f8b537;}.cls-8{letter-spacing:0em;}.cls-9{letter-spacing:0em;}.cls-10{font-family:MerriweatherSans-Regular, 'Merriweather Sans';font-size:19.5px;}.cls-11{font-family:NunitoSans-Bold, 'Nunito Sans';font-size:36.8px;font-variation-settings:'wght' 700, 'wdth' 100, 'opsz' 12, 'YTLC' 500;font-weight:700;}.cls-12{letter-spacing:0em;}.cls-13{letter-spacing:0em;}</style></defs><g id="AVVSIO_NESSUNA_STORIA"><rect class="cls-4" width="497.6" height="884.7"/><rect class="cls-5" x="67.5" y="87.9" width="363.1" height="177.5" rx="57.5" ry="57.5"/><text class="cls-11" transform="translate(87.4 145.2)"><tspan x="0" y="0">N</tspan><tspan class="cls-2" x="27.5" y="0">E</tspan><tspan x="49.1" y="0">SSUNA </tspan><tspan class="cls-9" x="187.6" y="0">S</tspan><tspan class="cls-8" x="210.2" y="0">T</tspan><tspan x="231.4" y="0">ORIA </tspan><tspan x="17.5" y="44.2">DIS</tspan><tspan class="cls-2" x="79.1" y="44.2">P</tspan><tspan x="102.7" y="44.2">ONIBILE AL </tspan><tspan x="65.5" y="88.3">MOMEN</tspan><tspan class="cls-8" x="207.7" y="88.3">T</tspan><tspan x="228.9" y="88.3">O</tspan></text><rect class="cls-5" x="76.7" y="652.9" width="338.8" height="135.3" rx="42.2" ry="42.2"/><path class="cls-3" d="m106.3,722.7h281.5c10.4,0,18.8,8.4,18.8,18.8h0c0,21.6-17.5,39.1-39.1,39.1H126.7c-21.6,0-39.1-17.5-39.1-39.1h0c0-10.4,8.4-18.8,18.8-18.8Z"/><text class="cls-10" transform="translate(115.6 689.8)"><tspan x="0" y="0">P</tspan><tspan class="cls-13" x="12.1" y="0">r</tspan><tspan x="19.8" y="0">ov</tspan><tspan class="cls-7" x="42.2" y="0">v</tspan><tspan x="52.7" y="0">ede</tspan><tspan class="cls-13" x="86.3" y="0">r</tspan><tspan x="94" y="0">emo al più p</tspan><tspan class="cls-7" x="204" y="0">r</tspan><tspan x="211.7" y="0">esto a </tspan><tspan x="-3" y="21.1">pubblica</tspan><tspan class="cls-13" x="76.7" y="21.1">r</tspan><tspan x="84.4" y="21.1">e la storia del giorno</tspan><tspan class="cls-1"><tspan x="-9.4" y="55.7">Fino ad allo</tspan><tspan class="cls-12" x="94.5" y="55.7">r</tspan><tspan x="102" y="55.7">a puoi </tspan><tspan class="cls-13" x="161.1" y="55.7">v</tspan><tspan x="171.6" y="55.7">ota</tspan><tspan class="cls-7" x="202.4" y="55.7">r</tspan><tspan x="210.1" y="55.7">e la tua </tspan></tspan><tspan class="cls-1"><tspan x="63.7" y="76.8">storia p</tspan><tspan class="cls-13" x="132.8" y="76.8">r</tspan><tspan x="140.5" y="76.8">e</tspan><tspan class="cls-7" x="151.4" y="76.8">f</tspan><tspan x="159" y="76.8">erita</tspan></tspan></text><rect class="cls-3" x="128.6" y="329.1" width="241" height="226.6"/><path class="cls-4" d="m219.2,412.9l-9.7-41.2c0-.4-.4-.6-.8-.6h-9.5c-.4,0-.7.3-.8.6l-10.5,41.2c-.1.5.3,1,.8,1h7.8c.4,0,.7-.3.8-.6l1.2-5.2c0-.4.4-.6.8-.6h8.7c.4,0,.7.2.8.6l1.6,5.3c.1.3.4.6.8.6h7.3c.5,0,.9-.5.8-1Zm-13-13.8h-5.4c-.2,0-.3-.2-.3-.3l2.6-13.7c0-.3.5-.3.5,0l2.8,13.7c0,.2,0,.3-.3.3Z"/><path class="cls-4" d="m311.2,412.9l-9.7-41.2c0-.4-.4-.6-.8-.6h-9.5c-.4,0-.7.3-.8.6l-10.5,41.2c-.1.5.3,1,.8,1h7.8c.4,0,.7-.3.8-.6l1.2-5.2c0-.4.4-.6.8-.6h8.7c.4,0,.7.2.8.6l1.6,5.3c.1.3.4.6.8.6h7.3c.5,0,.9-.5.8-1Zm-13-13.8h-5.4c-.2,0-.3-.2-.3-.3l2.6-13.7c0-.3.5-.3.5,0l2.8,13.7c0,.2,0,.3-.3.3Z"/><path class="cls-4" d="m224.3,371.1h8.1c.6,0,1,.4,1,1v31.9c0,.5.4,1,1,1h10.5c.6,0,1,.4,1,1v7c0,.5-.4,1-1,1h-20.6c-.6,0-1-.4-1-1v-40.9c0-.5.4-1,1-1Z"/><path class="cls-4" d="m277.4,397.7c-.7-2.3-2.4-3.9-3.8-4.9-.7-.4-.8-1.4-.2-1.9,1.5-1.6,3.9-4.8,3.6-9-.4-5.2-4.6-9.7-10.3-10.7,0,0-.2,0-.2,0h-14.8c-.7,0-1.3.6-1.3,1.3v40.3c0,.7.6,1.3,1.3,1.3h13.3s0,0,.1,0c1.7-.1,4.8-.6,7.8-2.8,1.2-.9,3.4-2.5,4.3-5.2.5-1.4.5-2.8.5-4.1,0-1.1,0-2.6-.3-4Zm-18-18c1.6,0,3.1,0,4.7,0,1.8.6,3.1,2.1,3.2,3.8.2,2-1.1,3.9-3.2,4.7h-4.7v-8.4Zm5,25.6h-5v-8.8c1.7,0,3.4,0,5,0,1.9.6,3.3,2.2,3.4,4,.2,2.1-1.2,4.1-3.4,4.8Z"/><path class="cls-4" d="m191.3,433.4h7.2c.4,0,.7-.3.8-.7.1-1.6.1-5.2-2.5-8.5-3.5-4.4-8.8-4.4-9.7-4.4s0,0-.1,0c-.9-.1-6.1-.6-9.9,3.2-2.2,2.2-2.8,4.7-3,5.9s0,0,0,.1c-.1,6.7-.3,13.4-.4,20.1,0,0,0,.1,0,.2.3,1.3.9,3.8,3,6.2,1.5,1.7,3.1,2.7,4.2,3.2s0,0,0,0c1.2.5,3.2,1,5.6,1,2.4,0,4.4-.6,5.6-1,1-.4,2.8-1.3,4.4-3.2,1.7-2,2.4-4.1,2.6-5.2s0-.1,0-.2v-11.4c0-.4-.3-.8-.8-.8l-11.2.2c-.4,0-.7.3-.7.8v5.7c0,.4.3.8.8.8h3.1c.4,0,.8.3.8.7s0,1.2-.2,1.9c-.3,1.1-.6,2.7-2,3.5-1.5.8-3.3,0-3.6,0s0,0,0,0c-.6-.4-1.6-1-2.2-2.2-.6-1.1-.5-2.1-.5-2.9,0-2.1-.2-4.2,0-6.4,0-1.7.1-4.1,0-7,0-3,2.3-5.1,4.4-5,1.7.1,3.2,1.8,3.6,3.5.1.5.1.9.1,1.2s.3.8.8.8Z"/><path class="cls-4" d="m230.5,440.3c0-8.6-.1-14.5-4.4-17.9-3.3-2.6-7.5-2.5-9-2.5-1.4,0-6,.1-9.3,3.1-3.4,3.1-3.5,7.7-3.7,17-.2,7.5-.2,11.3,2.1,14.3,2.3,3.1,6.4,5.5,11,5.6.4,0,6.5,0,10.5-4.7,3-3.5,3-7.5,2.9-15Zm-10.2,8.8c-1.3,2.7-3.3,2.8-3.4,2.8-1.5,0-2.9-1.4-3.6-3.3-.7-1.8-.7-4-.7-8.4,0-5.5,0-8.2,1.2-10,1.1-1.8,2.6-1.8,3.1-1.8.5,0,1.9,0,3,1.4,1.4,2,1.4,5.5,1.5,10.5,0,4.4,0,6.7-1,8.8Z"/><path class="cls-4" d="m250.4,431.7h6.6c.6,0,1.1-.5,1.2-1.1,0-1.5-.3-4.1-2-6.5-3.1-4.1-8.2-4.2-9.7-4.1s-.5,0-.8,0c-1.3,0-4.8.3-7.8,3.1-1.4,1.3-2.3,2.8-2.8,4.1-1,2.5-1,5.3,0,7.9.1.3.2.5.4.8.8,1.5,1.9,3,7.1,6.6,1.5,1,3.3,2.3,5.6,3.7,1.6.9,2.2,2.9,1.4,4.6-.2.4-.5.8-.9,1-1.7,1.3-4,.4-5.2-.8-.9-.9-1.1-1.9-1.2-2.6s-.4-.8-.9-.8h-6.4c-.7,0-1.2.6-1.2,1.3,0,1.6.6,4.2,2.5,6.6,2.4,3,5.5,3.9,6.4,4.1.8.2,5.7,1.7,10.4-1.2,1.8-1.1,3.3-2.7,4.4-4.6,2.3-4.3,1.6-9.6-1.8-13-.2-.2-.3-.3-.4-.4-1.9-1.8-3.5-2.3-8-5.1-.9-.6-1.8-1.1-2.5-1.6-1.6-1.1-1.9-3.3-.7-4.7.2-.3.5-.5.8-.6,1.5-.8,3.2.2,3.3.3,1.4.8,1.7,2.3,1.8,3s.3.4.5.4Z"/><path class="cls-4" d="m283.8,453.6c-.7,1.4-1.7,2.6-2.9,3.6-1.2-.6-2.6-.9-4-.9-2.8,0-5.3,1.3-7.2,3.3-.3,0-.5-.1-.6-.2-1-.2-4.1-1.1-6.4-4.1-1.9-2.4-2.4-5-2.5-6.6,0-.7.5-1.3,1.2-1.3h6.4c.5,0,.8.3.9.8,0,.7.4,1.8,1.2,2.6,1.2,1.2,3.6,2.1,5.2.8.4-.3.7-.6.9-1,.9-1.6.2-3.6-1.4-4.6-2.3-1.4-4.1-2.6-5.6-3.7-5.1-3.6-6.3-5.1-7.1-6.6-.1-.3-.3-.5-.4-.8-1-2.5-1-5.3,0-7.9.5-1.3,1.4-2.8,2.8-4.1,3-2.8,6.5-3.1,7.8-3.1.3,0,.6,0,.8,0,1.5,0,6.6,0,9.7,4.1,1.8,2.4,2.1,5,2,6.5,0,.6-.5,1.1-1.2,1.1h-6.6c-.3,0-.5-.2-.5-.4-.1-.7-.5-2.2-1.8-3-.2-.1-1.8-1.1-3.3-.3-.3.2-.6.4-.8.6-1.3,1.4-.9,3.7.7,4.7.7.5,1.5,1,2.5,1.6,4.5,2.8,6,3.3,8,5.2.1.1.3.3.4.4,3.4,3.5,4.1,8.8,1.8,13Z"/><path class="cls-4" d="m289.1,421.4v37.1c0,.5.5.9,1,.9h7.3c.6,0,1-.4,1-.9v-37.1c0-.5-.5-.9-1-.9h-7.3c-.6,0-1,.4-1,.9Z"/><path class="cls-4" d="m323.8,423.2c-.1-.1-.3-.2-.4-.3-2.8-2.3-5.9-2.4-6.8-2.4h-12.6c-.6,0-1.1.5-1.1,1.1v36.4c0,.5.4,1,1,1h6.5c.6,0,1.2-.5,1.2-1.2v-10c0-.7.7-1.3,1.4-1.1,1.8.4,4.8.6,8.1-1,.2,0,.3-.2.5-.2,3.5-1.9,5.6-5.7,5.6-9.7v-5c0-2.9-1.2-5.7-3.3-7.6Zm-5.4,14.1c0,0-.1.2-.2.3-.6,1-1.8,1.5-3,1.5h-3.6c-.3,0-.5-.2-.5-.5v-9.8c0-.3.2-.6.6-.6,1.1,0,2.1,0,2.8,0,1.4,0,1.8.2,2.1.3.6.3,1,.7,1.3,1.2.4.6.6,1.3.7,2,0,.9,0,1.6.1,2.3,0,2.4-.2,2.9-.4,3.3Z"/><path class="cls-6" d="m218.5,476.7c.1,0,.2.1.2.3-.8,1.6-2.1,4.6-2,8.6,0,4.4,1.7,7.6,2.6,9.2,0,.2,0,.4-.2.4-1,0-2.7,0-4.4-.9-2.3-1.3-3.1-3.4-3.6-4.5-.6-1.5-.8-3-.8-4.3,0-2.8,1.3-5.4,3.5-7,0,0,0,0,0,0,1.8-1.2,3.6-1.5,4.6-1.6Z"/><path class="cls-6" d="m223.2,476.7c-.9,0-1.7.5-2.1,1.2-1.1,1.7-2.7,5.1-2.1,9.4.4,2.9,1.6,5.1,2.7,6.5.7.9,1.7,1.4,2.8,1.3,4.3-.2,8.6-.3,12.9-.5.5,0,1,0,1.4.2l28.7,7.6c-1.8-4.1-4.2-11.2-4.2-20.3,0-6.7,1.3-12.2,2.6-16-9.4,3.3-18.8,6.5-28.1,9.8s-1.1.3-1.6.3l-12.8.5Z"/><path class="cls-6" d="m225.5,496.4h10.3c-.4.5-1.1,1.5-1.3,3-.1.8-.1,1.5,0,2s.3,1.3.5,1.9c.8,1.8,1.6,3.7,2.7,5.7.9,1.6,1.8,3.2,2.7,4.5.4.6.4,1.4,0,2.1s0,0,0,0c-1.1,1.6-3.5,2.1-6.4,1.7s-2-.8-2.5-1.7c-.3-.5-.6-1.1-.9-1.8-1.4-3.1-1.9-5.4-2.7-8.5-.5-2.1-1.3-5.2-2.4-8.9Z"/><path class="cls-6" d="m277.4,485.6c-.2,1.2-.5,3-2.1,4.1-1.5,1-3.2.7-3.8.6-.3-2.1-.6-4.4-.6-7,0-2,0-3.8.2-5.4.4,0,2-.4,3.7.6,1.6.9,2.2,2.4,2.3,2.8.3.9.7,2.5.4,4.3Z"/><path class="cls-6" d="m277.1,481.4c.3.9.7,2.5.4,4.3-.2,1.2-.5,3-2.1,4.1-1.5,1-3.2.7-3.8.6-.3-2.1-.6-4.4-.6-7,0-2,0-3.8.2-5.4.4,0,2-.4,3.7.6,1.6.9,2.2,2.4,2.3,2.8Z"/><path class="cls-6" d="m291.1,483.1c-.5-13.6-6.8-24.5-14-24.2-7.2.3-12.6,11.6-12.1,25.2.5,13.6,6.8,24.5,14,24.2,7.2-.3,12.6-11.6,12.1-25.2Zm-12.3,21.9c-5,.2-9.5-9.1-9.9-20.9-.5-11.7,3.2-21.4,8.2-21.6,5-.2,9.5,9.1,9.9,20.8.5,11.7-3.2,21.4-8.2,21.6Z"/><path class="cls-6" d="m277.4,485.6c-.2,1.2-.5,3-2.1,4.1-1.5,1-3.2.7-3.8.6-.3-2.1-.6-4.4-.6-7,0-2,0-3.8.2-5.4.4,0,2-.4,3.7.6,1.6.9,2.2,2.4,2.3,2.8.3.9.7,2.5.4,4.3Z"/></g></svg>